<svg xmlns="http://www.w3.org/2000/svg" xmlns:xlink="http://www.w3.org/1999/xlink" width="500" zoomAndPan="magnify" viewBox="0 0 375 112.499997" height="150" preserveAspectRatio="xMidYMid meet" version="1.0"><defs><g/></defs><g fill="#a6a6a6" fill-opacity="1"><g transform="translate(-5.666338, 102.318894)"><g><path d="M 30.109375 -97.234375 C 30.929688 -97.148438 32.679688 -97.082031 35.359375 -97.03125 C 38.046875 -96.988281 40.984375 -96.96875 44.171875 -96.96875 C 47.367188 -96.96875 50.304688 -96.96875 52.984375 -96.96875 C 55.671875 -96.96875 57.476562 -97.015625 58.40625 -97.109375 C 59.507812 -97.191406 60.941406 -97.1875 62.703125 -97.09375 C 64.460938 -97.007812 66.242188 -96.941406 68.046875 -96.890625 C 69.847656 -96.847656 71.300781 -96.875 72.40625 -96.96875 C 73.789062 -97.0625 75.289062 -96.921875 76.90625 -96.546875 C 78.53125 -96.179688 80.035156 -95.90625 81.421875 -95.71875 C 83.460938 -95.625 85.40625 -95.226562 87.25 -94.53125 C 89.101562 -93.84375 90.910156 -93.128906 92.671875 -92.390625 C 95.253906 -91.273438 97.5625 -89.75 99.59375 -87.8125 C 100.613281 -86.976562 101.675781 -86.210938 102.78125 -85.515625 C 103.894531 -84.828125 104.867188 -83.972656 105.703125 -82.953125 C 106.535156 -82.023438 107.320312 -81.03125 108.0625 -79.96875 C 108.800781 -78.90625 109.492188 -77.820312 110.140625 -76.71875 C 111.160156 -75.144531 111.992188 -73.453125 112.640625 -71.640625 C 113.285156 -69.835938 113.976562 -68.0625 114.71875 -66.3125 C 114.8125 -66.03125 114.90625 -65.75 115 -65.46875 C 115.09375 -65.195312 115.140625 -64.921875 115.140625 -64.640625 C 115.140625 -63.710938 115.347656 -62.234375 115.765625 -60.203125 C 116.179688 -58.171875 116.390625 -56.226562 116.390625 -54.375 C 116.390625 -51.875 116.269531 -49.46875 116.03125 -47.15625 C 115.800781 -44.851562 115.597656 -42.40625 115.421875 -39.8125 C 115.328125 -36.757812 114.882812 -33.800781 114.09375 -30.9375 C 113.3125 -28.070312 112.316406 -25.25 111.109375 -22.46875 C 109.265625 -18.03125 106.582031 -14.191406 103.0625 -10.953125 C 101.863281 -9.847656 100.613281 -8.765625 99.3125 -7.703125 C 98.019531 -6.640625 96.632812 -5.738281 95.15625 -5 C 93.582031 -4.164062 91.988281 -3.445312 90.375 -2.84375 C 88.757812 -2.238281 87.070312 -1.847656 85.3125 -1.671875 C 83.832031 -1.578125 82.351562 -1.34375 80.875 -0.96875 C 79.394531 -0.601562 77.914062 -0.421875 76.4375 -0.421875 C 73.75 -0.515625 71.0625 -0.441406 68.375 -0.203125 C 65.695312 0.0234375 63.019531 0.09375 60.34375 0 C 56.269531 -0.09375 52.148438 -0.207031 47.984375 -0.34375 C 43.828125 -0.488281 39.71875 -0.46875 35.65625 -0.28125 C 33.25 -0.1875 30.863281 -0.226562 28.5 -0.40625 C 26.144531 -0.59375 23.765625 -0.597656 21.359375 -0.421875 C 19.328125 -0.328125 17.316406 -0.28125 15.328125 -0.28125 C 13.335938 -0.28125 11.375 -0.1875 9.4375 0 C 8.875 -1.195312 8.613281 -2.164062 8.65625 -2.90625 C 8.707031 -3.644531 8.78125 -4.429688 8.875 -5.265625 C 9.0625 -6.835938 9.128906 -8.363281 9.078125 -9.84375 C 9.035156 -11.320312 9.015625 -12.800781 9.015625 -14.28125 L 9.015625 -24.546875 L 8.59375 -32.328125 C 8.507812 -33.710938 8.441406 -35.070312 8.390625 -36.40625 C 8.347656 -37.75 8.375 -39.066406 8.46875 -40.359375 C 8.644531 -42.210938 8.707031 -44.085938 8.65625 -45.984375 C 8.613281 -47.878906 8.59375 -49.753906 8.59375 -51.609375 C 8.507812 -54.660156 8.507812 -57.753906 8.59375 -60.890625 C 8.6875 -62.285156 8.734375 -63.695312 8.734375 -65.125 C 8.734375 -66.5625 8.734375 -67.972656 8.734375 -69.359375 L 8.734375 -82.671875 C 8.734375 -84.710938 8.664062 -86.492188 8.53125 -88.015625 C 8.394531 -89.546875 8.375 -91.328125 8.46875 -93.359375 C 8.46875 -93.722656 8.46875 -94.296875 8.46875 -95.078125 C 8.46875 -95.867188 8.554688 -96.453125 8.734375 -96.828125 C 10.035156 -97.191406 11.304688 -97.347656 12.546875 -97.296875 C 13.796875 -97.253906 15.023438 -97.191406 16.234375 -97.109375 C 18.640625 -97.015625 20.972656 -97.054688 23.234375 -97.234375 C 25.503906 -97.421875 27.796875 -97.421875 30.109375 -97.234375 Z M 56.875 -83.375 C 55.675781 -83.375 54.5 -83.347656 53.34375 -83.296875 C 52.1875 -83.253906 51.003906 -83.28125 49.796875 -83.375 C 49.242188 -83.375 48.6875 -83.328125 48.125 -83.234375 C 47.570312 -83.140625 47.019531 -83 46.46875 -82.8125 C 46.75 -80.78125 46.769531 -78.816406 46.53125 -76.921875 C 46.300781 -75.023438 46.234375 -73.101562 46.328125 -71.15625 C 46.421875 -69.582031 46.441406 -67.828125 46.390625 -65.890625 C 46.347656 -63.953125 46.300781 -62.148438 46.25 -60.484375 C 46.207031 -58.816406 46.234375 -57.660156 46.328125 -57.015625 C 46.421875 -56.546875 46.46875 -55.363281 46.46875 -53.46875 C 46.46875 -51.570312 46.441406 -49.398438 46.390625 -46.953125 C 46.347656 -44.503906 46.300781 -42.171875 46.25 -39.953125 C 46.207031 -37.734375 46.1875 -36.066406 46.1875 -34.953125 C 46.1875 -32.640625 46.253906 -30.28125 46.390625 -27.875 C 46.535156 -25.476562 46.65625 -23.078125 46.75 -20.671875 C 46.84375 -19.648438 46.816406 -18.628906 46.671875 -17.609375 C 46.535156 -16.597656 46.703125 -15.582031 47.171875 -14.5625 C 48.648438 -14.5625 50.21875 -14.5625 51.875 -14.5625 C 53.539062 -14.5625 55.113281 -14.609375 56.59375 -14.703125 C 58.257812 -14.890625 59.851562 -15.191406 61.375 -15.609375 C 62.90625 -16.023438 64.410156 -16.785156 65.890625 -17.890625 C 67.179688 -18.910156 68.289062 -19.972656 69.21875 -21.078125 C 70.144531 -22.191406 70.929688 -23.441406 71.578125 -24.828125 C 72.691406 -27.328125 73.5 -30.007812 74 -32.875 C 74.507812 -35.738281 74.8125 -38.328125 74.90625 -40.640625 C 75 -42.953125 75 -44.476562 74.90625 -45.21875 C 74.8125 -47.070312 74.785156 -48.875 74.828125 -50.625 C 74.878906 -52.382812 74.859375 -54.144531 74.765625 -55.90625 C 74.765625 -57.382812 74.601562 -59.023438 74.28125 -60.828125 C 73.957031 -62.628906 73.566406 -64.316406 73.109375 -65.890625 C 72.734375 -67.460938 72.289062 -68.894531 71.78125 -70.1875 C 71.28125 -71.488281 70.660156 -72.832031 69.921875 -74.21875 C 68.523438 -76.894531 66.785156 -79.066406 64.703125 -80.734375 C 62.628906 -82.398438 60.019531 -83.28125 56.875 -83.375 Z M 56.875 -83.375 "/></g></g></g><g fill="#a6a6a6" fill-opacity="1"><g transform="translate(106.134705, 102.318894)"><g><path d="M 57.5625 -74.078125 C 57.9375 -73.984375 58.285156 -73.9375 58.609375 -73.9375 C 58.929688 -73.9375 59.28125 -73.84375 59.65625 -73.65625 C 61.5 -73.007812 63.34375 -72.363281 65.1875 -71.71875 C 67.039062 -71.070312 68.800781 -70.238281 70.46875 -69.21875 C 73.332031 -67.457031 75.78125 -65.351562 77.8125 -62.90625 C 79.851562 -60.457031 81.242188 -57.476562 81.984375 -53.96875 C 82.078125 -53.6875 82.125 -53.382812 82.125 -53.0625 C 82.125 -52.738281 82.125 -52.4375 82.125 -52.15625 C 82.21875 -51.96875 82.238281 -51.757812 82.1875 -51.53125 C 82.144531 -51.300781 82.125 -51 82.125 -50.625 C 79.8125 -50.625 77.519531 -50.4375 75.25 -50.0625 C 72.988281 -49.695312 70.65625 -49.703125 68.25 -50.078125 C 67.875 -50.441406 67.644531 -50.765625 67.5625 -51.046875 C 66.90625 -53.640625 65.742188 -55.628906 64.078125 -57.015625 C 62.421875 -58.398438 60.390625 -59.414062 57.984375 -60.0625 C 56.046875 -60.613281 54.171875 -60.660156 52.359375 -60.203125 C 50.554688 -59.742188 48.867188 -58.863281 47.296875 -57.5625 C 43.972656 -54.789062 41.941406 -51.234375 41.203125 -46.890625 C 40.921875 -45.503906 40.640625 -44.113281 40.359375 -42.71875 C 40.085938 -41.332031 39.859375 -39.992188 39.671875 -38.703125 C 39.304688 -36.203125 39.351562 -33.769531 39.8125 -31.40625 C 40.269531 -29.050781 40.828125 -26.722656 41.484375 -24.421875 C 41.941406 -22.929688 42.65625 -21.46875 43.625 -20.03125 C 44.59375 -18.601562 45.816406 -17.382812 47.296875 -16.375 C 49.984375 -14.519531 52.945312 -13.59375 56.1875 -13.59375 C 59.144531 -13.5 61.867188 -14.050781 64.359375 -15.25 C 66.859375 -16.457031 69.21875 -17.941406 71.4375 -19.703125 C 72.082031 -20.253906 72.707031 -20.804688 73.3125 -21.359375 C 73.914062 -21.910156 74.679688 -22.375 75.609375 -22.75 C 77.265625 -21.632812 78.785156 -20.335938 80.171875 -18.859375 C 81.566406 -17.378906 83.003906 -15.992188 84.484375 -14.703125 C 84.390625 -14.421875 84.316406 -14.1875 84.265625 -14 C 84.222656 -13.820312 84.15625 -13.6875 84.0625 -13.59375 C 81.5625 -11.28125 78.992188 -9.0625 76.359375 -6.9375 C 73.722656 -4.8125 70.789062 -3.097656 67.5625 -1.796875 C 65.25 -0.878906 62.816406 -0.238281 60.265625 0.125 C 57.722656 0.5 55.160156 0.921875 52.578125 1.390625 C 48.140625 2.222656 43.789062 2.195312 39.53125 1.3125 C 35.28125 0.4375 31.117188 -0.785156 27.046875 -2.359375 C 24.460938 -3.378906 22.128906 -4.71875 20.046875 -6.375 C 17.960938 -8.039062 16 -9.894531 14.15625 -11.9375 C 13.226562 -13.039062 12.300781 -14.125 11.375 -15.1875 C 10.445312 -16.25 9.753906 -17.519531 9.296875 -19 C 8.554688 -21.957031 7.816406 -24.9375 7.078125 -27.9375 C 6.335938 -30.945312 6.0625 -34.023438 6.25 -37.171875 C 6.519531 -40.503906 7.046875 -43.765625 7.828125 -46.953125 C 8.617188 -50.140625 9.941406 -53.21875 11.796875 -56.1875 C 13.367188 -58.675781 15.144531 -60.960938 17.125 -63.046875 C 19.113281 -65.128906 21.265625 -67.046875 23.578125 -68.796875 C 25.523438 -70.191406 27.582031 -71.28125 29.75 -72.0625 C 31.925781 -72.851562 34.171875 -73.429688 36.484375 -73.796875 C 39.992188 -74.535156 43.503906 -74.953125 47.015625 -75.046875 C 50.535156 -75.140625 54.050781 -74.816406 57.5625 -74.078125 Z M 57.5625 -74.078125 "/></g></g></g><g fill="#a6a6a6" fill-opacity="1"><g transform="translate(186.031973, 102.318894)"><g><path d="M 94.046875 -97.375 C 94.609375 -97.101562 94.929688 -96.804688 95.015625 -96.484375 C 95.109375 -96.160156 95.203125 -95.765625 95.296875 -95.296875 C 95.296875 -94.191406 95.296875 -93.035156 95.296875 -91.828125 C 95.296875 -90.628906 95.34375 -89.472656 95.4375 -88.359375 C 95.625 -86.972656 95.625 -85.796875 95.4375 -84.828125 C 95.25 -83.859375 95.15625 -82.816406 95.15625 -81.703125 C 94.507812 -80.503906 93.789062 -79.207031 93 -77.8125 C 92.21875 -76.425781 91.457031 -75.226562 90.71875 -74.21875 C 89.238281 -72.09375 87.78125 -69.960938 86.34375 -67.828125 C 84.914062 -65.703125 83.644531 -63.484375 82.53125 -61.171875 C 80.957031 -57.929688 79.203125 -54.804688 77.265625 -51.796875 C 75.328125 -48.796875 73.429688 -45.816406 71.578125 -42.859375 C 69.265625 -39.253906 67 -35.691406 64.78125 -32.171875 C 62.5625 -28.660156 60.25 -25.148438 57.84375 -21.640625 C 57.007812 -20.347656 56.109375 -19.050781 55.140625 -17.75 C 54.171875 -16.457031 53.316406 -14.976562 52.578125 -13.3125 C 59.972656 -13.40625 67.273438 -13.425781 74.484375 -13.375 C 81.703125 -13.332031 88.828125 -13.59375 95.859375 -14.15625 C 97.148438 -11.375 97.519531 -7.070312 96.96875 -1.25 C 96.039062 -0.96875 95.132812 -0.734375 94.25 -0.546875 C 93.375 -0.367188 92.429688 -0.328125 91.421875 -0.421875 C 88.367188 -0.597656 85.335938 -0.617188 82.328125 -0.484375 C 79.328125 -0.347656 76.300781 -0.1875 73.25 0 C 69.726562 0.09375 66.164062 0.1875 62.5625 0.28125 C 58.957031 0.375 55.394531 0.375 51.875 0.28125 C 46.507812 0.09375 41.125 0.046875 35.71875 0.140625 C 30.3125 0.234375 24.878906 0.1875 19.421875 0 C 17.847656 0 16.273438 -0.0195312 14.703125 -0.0625 C 13.128906 -0.113281 11.554688 -0.1875 9.984375 -0.28125 C 9.617188 -0.375 9.203125 -0.441406 8.734375 -0.484375 C 8.273438 -0.535156 7.816406 -0.742188 7.359375 -1.109375 C 7.359375 -2.679688 7.378906 -4.273438 7.421875 -5.890625 C 7.460938 -7.515625 7.394531 -9.066406 7.21875 -10.546875 C 6.65625 -14.242188 7.765625 -17.476562 10.546875 -20.25 C 12.390625 -22.101562 13.984375 -24.140625 15.328125 -26.359375 C 16.671875 -28.578125 18.082031 -30.703125 19.5625 -32.734375 C 22.238281 -36.335938 24.734375 -40.035156 27.046875 -43.828125 C 29.359375 -47.617188 31.765625 -51.367188 34.265625 -55.078125 C 36.023438 -57.566406 37.6875 -60.101562 39.25 -62.6875 C 40.820312 -65.28125 42.488281 -67.828125 44.25 -70.328125 C 45.539062 -72.085938 46.785156 -73.84375 47.984375 -75.59375 C 49.191406 -77.351562 50.351562 -79.160156 51.46875 -81.015625 C 51.644531 -81.203125 51.828125 -81.457031 52.015625 -81.78125 C 52.203125 -82.101562 52.203125 -82.492188 52.015625 -82.953125 C 51.648438 -83.140625 51.257812 -83.207031 50.84375 -83.15625 C 50.425781 -83.113281 49.984375 -83.09375 49.515625 -83.09375 C 45.816406 -83.1875 42.140625 -83.160156 38.484375 -83.015625 C 34.835938 -82.878906 31.164062 -82.71875 27.46875 -82.53125 C 24.96875 -82.445312 22.492188 -82.425781 20.046875 -82.46875 C 17.597656 -82.507812 15.125 -82.347656 12.625 -81.984375 C 11.414062 -81.796875 10.257812 -82.164062 9.15625 -83.09375 C 8.78125 -85.21875 8.613281 -87.363281 8.65625 -89.53125 C 8.707031 -91.707031 8.597656 -93.953125 8.328125 -96.265625 C 15.628906 -96.910156 22.863281 -97.09375 30.03125 -96.8125 C 37.195312 -96.539062 44.34375 -96.640625 51.46875 -97.109375 C 58.582031 -97.566406 65.703125 -97.65625 72.828125 -97.375 C 79.953125 -97.101562 87.023438 -97.101562 94.046875 -97.375 Z M 94.046875 -97.375 "/></g></g></g><g fill="#a6a6a6" fill-opacity="1"><g transform="translate(277.719774, 102.318894)"><g><path d="M 45.21875 -97.375 C 46.238281 -97.46875 46.976562 -97.328125 47.4375 -96.953125 C 47.90625 -96.585938 48.09375 -95.851562 48 -94.75 C 47.8125 -92.800781 47.8125 -90.8125 48 -88.78125 C 48.1875 -86.1875 48.1875 -83.546875 48 -80.859375 C 47.8125 -78.179688 47.765625 -75.503906 47.859375 -72.828125 C 47.953125 -71.347656 47.953125 -69.84375 47.859375 -68.3125 C 47.765625 -66.789062 47.765625 -65.242188 47.859375 -63.671875 C 47.953125 -61.171875 47.972656 -58.671875 47.921875 -56.171875 C 47.878906 -53.679688 47.859375 -51.1875 47.859375 -48.6875 C 47.765625 -45.726562 47.671875 -42.742188 47.578125 -39.734375 C 47.484375 -36.734375 47.53125 -33.753906 47.71875 -30.796875 C 47.90625 -28.765625 47.972656 -26.707031 47.921875 -24.625 C 47.878906 -22.539062 47.859375 -20.4375 47.859375 -18.3125 C 47.953125 -16.09375 47.972656 -13.847656 47.921875 -11.578125 C 47.878906 -9.316406 47.859375 -7.03125 47.859375 -4.71875 C 47.859375 -4.4375 47.878906 -4.15625 47.921875 -3.875 C 47.972656 -3.601562 48.046875 -3.328125 48.140625 -3.046875 C 48.316406 -2.398438 48.242188 -1.84375 47.921875 -1.375 C 47.597656 -0.914062 47.113281 -0.6875 46.46875 -0.6875 C 43.789062 -0.6875 41.132812 -0.546875 38.5 -0.265625 C 35.863281 0.00390625 33.203125 0.1875 30.515625 0.28125 C 29.128906 0.375 27.765625 0.347656 26.421875 0.203125 C 25.085938 0.0664062 23.722656 -0.046875 22.328125 -0.140625 C 20.296875 -0.234375 18.238281 -0.300781 16.15625 -0.34375 C 14.082031 -0.394531 11.976562 -0.234375 9.84375 0.140625 C 8.925781 -0.410156 8.46875 -1.382812 8.46875 -2.78125 C 8.644531 -4.4375 8.800781 -6.097656 8.9375 -7.765625 C 9.082031 -9.429688 9.0625 -11.050781 8.875 -12.625 C 8.78125 -14.46875 8.6875 -16.242188 8.59375 -17.953125 C 8.507812 -19.671875 8.507812 -21.410156 8.59375 -23.171875 C 8.6875 -26.398438 8.78125 -29.609375 8.875 -32.796875 C 8.96875 -35.992188 8.96875 -39.164062 8.875 -42.3125 C 8.78125 -44.0625 8.78125 -45.816406 8.875 -47.578125 C 8.96875 -49.335938 9.015625 -51.097656 9.015625 -52.859375 C 9.015625 -54.984375 9.035156 -57.128906 9.078125 -59.296875 C 9.128906 -61.472656 9.109375 -63.625 9.015625 -65.75 C 9.015625 -67.320312 9.0625 -68.914062 9.15625 -70.53125 C 9.25 -72.15625 9.203125 -73.707031 9.015625 -75.1875 C 8.921875 -76.289062 8.804688 -77.375 8.671875 -78.4375 C 8.535156 -79.507812 8.46875 -80.597656 8.46875 -81.703125 C 8.375 -82.816406 8.367188 -83.925781 8.453125 -85.03125 C 8.546875 -86.144531 8.59375 -87.253906 8.59375 -88.359375 C 8.59375 -89.191406 8.570312 -90.253906 8.53125 -91.546875 C 8.488281 -92.847656 8.441406 -94.03125 8.390625 -95.09375 C 8.347656 -96.15625 8.328125 -96.6875 8.328125 -96.6875 C 9.710938 -96.875 11.070312 -96.921875 12.40625 -96.828125 C 13.75 -96.734375 15.070312 -96.828125 16.375 -97.109375 C 17.476562 -97.378906 18.582031 -97.445312 19.6875 -97.3125 C 20.800781 -97.175781 21.914062 -97.0625 23.03125 -96.96875 C 24.875 -96.875 26.675781 -96.875 28.4375 -96.96875 C 31.488281 -97.144531 34.492188 -97.144531 37.453125 -96.96875 C 40.046875 -96.875 42.632812 -97.007812 45.21875 -97.375 Z M 45.21875 -97.375 "/></g></g></g><g fill="#a6a6a6" fill-opacity="1"><g transform="translate(323.771303, 102.318894)"><g><path d="M 45.21875 -97.375 C 46.238281 -97.46875 46.976562 -97.328125 47.4375 -96.953125 C 47.90625 -96.585938 48.09375 -95.851562 48 -94.75 C 47.8125 -92.800781 47.8125 -90.8125 48 -88.78125 C 48.1875 -86.1875 48.1875 -83.546875 48 -80.859375 C 47.8125 -78.179688 47.765625 -75.503906 47.859375 -72.828125 C 47.953125 -71.347656 47.953125 -69.84375 47.859375 -68.3125 C 47.765625 -66.789062 47.765625 -65.242188 47.859375 -63.671875 C 47.953125 -61.171875 47.972656 -58.671875 47.921875 -56.171875 C 47.878906 -53.679688 47.859375 -51.1875 47.859375 -48.6875 C 47.765625 -45.726562 47.671875 -42.742188 47.578125 -39.734375 C 47.484375 -36.734375 47.53125 -33.753906 47.71875 -30.796875 C 47.90625 -28.765625 47.972656 -26.707031 47.921875 -24.625 C 47.878906 -22.539062 47.859375 -20.4375 47.859375 -18.3125 C 47.953125 -16.09375 47.972656 -13.847656 47.921875 -11.578125 C 47.878906 -9.316406 47.859375 -7.03125 47.859375 -4.71875 C 47.859375 -4.4375 47.878906 -4.15625 47.921875 -3.875 C 47.972656 -3.601562 48.046875 -3.328125 48.140625 -3.046875 C 48.316406 -2.398438 48.242188 -1.84375 47.921875 -1.375 C 47.597656 -0.914062 47.113281 -0.6875 46.46875 -0.6875 C 43.789062 -0.6875 41.132812 -0.546875 38.5 -0.265625 C 35.863281 0.00390625 33.203125 0.1875 30.515625 0.28125 C 29.128906 0.375 27.765625 0.347656 26.421875 0.203125 C 25.085938 0.0664062 23.722656 -0.046875 22.328125 -0.140625 C 20.296875 -0.234375 18.238281 -0.300781 16.15625 -0.34375 C 14.082031 -0.394531 11.976562 -0.234375 9.84375 0.140625 C 8.925781 -0.410156 8.46875 -1.382812 8.46875 -2.78125 C 8.644531 -4.4375 8.800781 -6.097656 8.9375 -7.765625 C 9.082031 -9.429688 9.0625 -11.050781 8.875 -12.625 C 8.78125 -14.46875 8.6875 -16.242188 8.59375 -17.953125 C 8.507812 -19.671875 8.507812 -21.410156 8.59375 -23.171875 C 8.6875 -26.398438 8.78125 -29.609375 8.875 -32.796875 C 8.96875 -35.992188 8.96875 -39.164062 8.875 -42.3125 C 8.78125 -44.0625 8.78125 -45.816406 8.875 -47.578125 C 8.96875 -49.335938 9.015625 -51.097656 9.015625 -52.859375 C 9.015625 -54.984375 9.035156 -57.128906 9.078125 -59.296875 C 9.128906 -61.472656 9.109375 -63.625 9.015625 -65.75 C 9.015625 -67.320312 9.0625 -68.914062 9.15625 -70.53125 C 9.25 -72.15625 9.203125 -73.707031 9.015625 -75.1875 C 8.921875 -76.289062 8.804688 -77.375 8.671875 -78.4375 C 8.535156 -79.507812 8.46875 -80.597656 8.46875 -81.703125 C 8.375 -82.816406 8.367188 -83.925781 8.453125 -85.03125 C 8.546875 -86.144531 8.59375 -87.253906 8.59375 -88.359375 C 8.59375 -89.191406 8.570312 -90.253906 8.53125 -91.546875 C 8.488281 -92.847656 8.441406 -94.03125 8.390625 -95.09375 C 8.347656 -96.15625 8.328125 -96.6875 8.328125 -96.6875 C 9.710938 -96.875 11.070312 -96.921875 12.40625 -96.828125 C 13.75 -96.734375 15.070312 -96.828125 16.375 -97.109375 C 17.476562 -97.378906 18.582031 -97.445312 19.6875 -97.3125 C 20.800781 -97.175781 21.914062 -97.0625 23.03125 -96.96875 C 24.875 -96.875 26.675781 -96.875 28.4375 -96.96875 C 31.488281 -97.144531 34.492188 -97.144531 37.453125 -96.96875 C 40.046875 -96.875 42.632812 -97.007812 45.21875 -97.375 Z M 45.21875 -97.375 "/></g></g></g></svg>